# xmcd
#
# Track frame offsets: 
#        150
#        20376
#        38700
#        56647
#        76619
#        92615
#        107734
#        125868
#        140994
#        158867
#        176566
#        193811
#        213460
#        235314
#        246641
#        262965
#        279761
#        298350
#
# Disc length: 4235 seconds
#
# Revision: 2
# Processed by: cddbd v1.5.2PL0 Copyright (c) Steve Scherf et al.
# Submitted via: ExactAudioCopyFreeDBPlugin 1.0
#
DISCID=0f108912
DTITLE=譚詠麟 - 極品天碟 - 譚詠麟 (LPCD 45 M2)
DYEAR=2011
DGENRE=Pop
TTITLE0=霧之戀
TTITLE1=愛在深秋
TTITLE2=愛的根源
TTITLE3=幻影
TTITLE4=遲來的春天
TTITLE5=暫別（譚詠麟 雷安娜)
TTITLE6=忘不了您
TTITLE7=雨絲、情愁
TTITLE8=誰可改變
TTITLE9=亮了紅燈
TTITLE10=愛的替身
TTITLE11=午夜麗人
TTITLE12=編織
TTITLE13=愛是這樣甜
TTITLE14=相識非偶然
TTITLE15=小風波
TTITLE16=酒紅色的心
TTITLE17=雨夜的浪
EXTD=
EXTT0=
EXTT1=
EXTT2=
EXTT3=
EXTT4=
EXTT5=
EXTT6=
EXTT7=
EXTT8=
EXTT9=
EXTT10=
EXTT11=
EXTT12=
EXTT13=
EXTT14=
EXTT15=
EXTT16=
EXTT17=
PLAYORDER=
